<svg id="Layer_1" data-name="Layer 1" xmlns="http://www.w3.org/2000/svg" viewBox="0 0 654.64 654.64"><defs><style>.cls-1{fill:#d3ad1b;}.cls-2{fill:#f7cf47;}</style></defs><title>Clear</title><path class="cls-1" d="M346.68,219.89a110.23,110.23,0,0,0-19-1.76,108.88,108.88,0,0,0,0,217.76,110.23,110.23,0,0,0,19-1.76,126.84,126.84,0,0,1,0-214.24Z"/><path class="cls-2" d="M624.63,297.32H535.26a207.76,207.76,0,0,0-12.89-48.46l77.31-44.6A29.69,29.69,0,1,0,570,152.83l-77.37,44.65a210.47,210.47,0,0,0-35.43-35.41l44.67-77.38A29.7,29.7,0,0,0,450.42,55L405.8,132.33a207.13,207.13,0,0,0-48.39-12.85V30.08a29.7,29.7,0,1,0-59.39,0v89.4a208,208,0,0,0-48.43,12.87L205,55a29.7,29.7,0,0,0-51.44,29.69L198.2,162.1a213.68,213.68,0,0,0-35.4,35.41L85.36,152.83a29.69,29.69,0,1,0-29.68,51.43l77.38,44.66a205,205,0,0,0-12.85,48.42H30.72a29.69,29.69,0,0,0,0,59.38h89.51a206.09,206.09,0,0,0,12.83,48.37L55.68,449.77a29.7,29.7,0,0,0,14.88,55.42,29.29,29.29,0,0,0,14.8-4l77.45-44.7a213.05,213.05,0,0,0,35.4,35.37L153.5,569.34A29.69,29.69,0,0,0,204.93,599l44.66-77.39A207.5,207.5,0,0,0,298,534.53v89.4a29.7,29.7,0,0,0,59.39,0v-89.4a207.65,207.65,0,0,0,48.39-12.87L450.45,599a29.7,29.7,0,0,0,51.44-29.69l-44.69-77.4a211.29,211.29,0,0,0,35.39-35.4L570,501.2a29.32,29.32,0,0,0,14.8,4,29.7,29.7,0,0,0,14.89-55.42l-77.35-44.65a206.41,206.41,0,0,0,12.89-48.43h89.38a29.69,29.69,0,1,0,0-59.37ZM327.68,472.18A145.18,145.18,0,1,1,472.85,327,145.15,145.15,0,0,1,327.68,472.18Z"/></svg>