<svg id="Layer_1" data-name="Layer 1" xmlns="http://www.w3.org/2000/svg" viewBox="0 0 654.64 654.64"><defs><style>.cls-1{fill:#b8cbd1;}.cls-2{fill:#0b778d;}</style></defs><title>Clouds</title><path class="cls-1" d="M510,187.91a137.31,137.31,0,0,0-20.94,1.58,151.32,151.32,0,0,0,2.33-25.73C491.41,73.36,415.53,0,321.8,0,230.66,0,156.46,69.62,152.62,156.79,67.57,161,0,228.64,0,311.73c0,46.64,21.36,88.34,55,116.81.63-54.26,46.49-98.21,102.85-98.21,31.28,0,56.72,24.56,56.72,54.75A53.41,53.41,0,0,1,202,419.48H515.85A56.62,56.62,0,0,1,568.76,455c50.56-21.75,85.88-70.6,85.88-127.51C654.64,250.41,589.86,187.91,510,187.91Z"/><path class="cls-2" d="M515.85,529H290.21c-35.88,0-65.09,28.19-65.09,62.83s29.21,62.82,65.09,62.82c10.43,0,18.91-8.16,18.91-18.25s-8.48-18.25-18.91-18.25c-15,0-27.28-11.8-27.28-26.32s12.24-26.33,27.28-26.33H515.85c10.43,0,18.9-8.16,18.9-18.25S526.28,529,515.85,529Z"/><path class="cls-2" d="M515.85,456h-358c-15,0-27.28-11.8-27.28-26.33s12.24-26.32,27.28-26.32c10.43,0,18.91-8.17,18.91-18.26s-8.48-18.25-18.91-18.25c-35.89,0-65.09,28.2-65.09,62.83s29.2,62.83,65.09,62.83h358c10.43,0,18.9-8.17,18.9-18.25S526.28,456,515.85,456Z"/></svg>