<svg id="Layer_1" data-name="Layer 1" xmlns="http://www.w3.org/2000/svg" viewBox="0 0 1080 1080"><defs><style>.cls-1{fill:#b8cbd1;}.cls-2{fill:#f7cf47;}.cls-3{fill:#80bfcf;}.cls-4{fill:#788a8e;stroke:#000;stroke-miterlimit:10;stroke-width:35.09px;}</style></defs><title>clouds</title><path class="cls-1" d="M277.24,880.54a24.73,24.73,0,0,0-30.85,16l-4.17,13.24a24.23,24.23,0,0,0,16.33,30.37,24.83,24.83,0,0,0,30.85-16l4.17-13.24A24.21,24.21,0,0,0,277.24,880.54Z"/><path class="cls-1" d="M255.5,949.84a24.75,24.75,0,0,0-30.92,16l-4.44,14a24.25,24.25,0,0,0,16.31,30.37,25.6,25.6,0,0,0,7.32,1.08,24.63,24.63,0,0,0,23.57-17.11l4.41-14A24.16,24.16,0,0,0,255.5,949.84Z"/><path class="cls-1" d="M233.4,1019.88a24.72,24.72,0,0,0-30.85,16l-4.17,13.24a24.23,24.23,0,0,0,16.33,30.35,24.89,24.89,0,0,0,7.25,1,24.64,24.64,0,0,0,23.6-17.1l4.17-13.24A24.18,24.18,0,0,0,233.4,1019.88Z"/><path class="cls-1" d="M412.16,880.54a24.79,24.79,0,0,0-30.89,16l-4.15,13.24a24.2,24.2,0,0,0,16.33,30.37,24.94,24.94,0,0,0,7.25,1.08,24.68,24.68,0,0,0,23.6-17.13l4.15-13.24A24.19,24.19,0,0,0,412.16,880.54Z"/><path class="cls-1" d="M390.38,949.84a24.73,24.73,0,0,0-30.9,16l-4.41,14a24.18,24.18,0,0,0,16.33,30.37,24.92,24.92,0,0,0,7.27,1.08,24.67,24.67,0,0,0,23.58-17.11l4.41-14A24.14,24.14,0,0,0,390.38,949.84Z"/><path class="cls-1" d="M368.28,1019.88a24.73,24.73,0,0,0-30.85,16l-4.15,13.24a24.18,24.18,0,0,0,16.33,30.35,25,25,0,0,0,30.85-16l4.15-13.24A24.17,24.17,0,0,0,368.28,1019.88Z"/><path class="cls-1" d="M547,880.54a24.67,24.67,0,0,0-30.82,16L512,909.81a24.22,24.22,0,0,0,16.31,30.37,25.27,25.27,0,0,0,7.27,1.08,24.65,24.65,0,0,0,23.6-17.13l4.19-13.24A24.23,24.23,0,0,0,547,880.54Z"/><path class="cls-1" d="M525.28,949.84a24.77,24.77,0,0,0-30.92,16l-4.41,14a24.23,24.23,0,0,0,16.31,30.37,25.4,25.4,0,0,0,7.29,1.08,24.65,24.65,0,0,0,23.58-17.11l4.41-14A24.15,24.15,0,0,0,525.28,949.84Z"/><path class="cls-1" d="M503.2,1019.88a24.76,24.76,0,0,0-30.89,16l-4.15,13.24a24.2,24.2,0,0,0,16.31,30.35,25.22,25.22,0,0,0,7.27,1,24.66,24.66,0,0,0,23.6-17.1l4.17-13.24A24.19,24.19,0,0,0,503.2,1019.88Z"/><path class="cls-1" d="M681.92,880.54a24.7,24.7,0,0,0-30.84,16l-4.18,13.24a24.23,24.23,0,0,0,16.28,30.37,25.52,25.52,0,0,0,7.3,1.08,24.66,24.66,0,0,0,23.6-17.13l4.17-13.24A24.21,24.21,0,0,0,681.92,880.54Z"/><path class="cls-1" d="M660.13,949.84a24.73,24.73,0,0,0-30.87,16l-4.43,14a24.22,24.22,0,0,0,16.3,30.37,25.55,25.55,0,0,0,7.32,1.08A24.71,24.71,0,0,0,672,994.17l4.41-14A24.18,24.18,0,0,0,660.13,949.84Z"/><path class="cls-1" d="M638.08,1019.88a24.68,24.68,0,0,0-30.84,16l-4.18,13.24a24.19,24.19,0,0,0,16.29,30.35,25.26,25.26,0,0,0,7.29,1,24.64,24.64,0,0,0,23.6-17.1l4.17-13.24A24.18,24.18,0,0,0,638.08,1019.88Z"/><path class="cls-1" d="M816.8,880.54a24.74,24.74,0,0,0-30.85,16l-4.15,13.24a24.21,24.21,0,0,0,16.31,30.37,25.07,25.07,0,0,0,7.27,1.08A24.68,24.68,0,0,0,829,924.13l4.15-13.24A24.22,24.22,0,0,0,816.8,880.54Z"/><path class="cls-1" d="M795,949.84a24.76,24.76,0,0,0-30.89,16l-4.41,14A24.19,24.19,0,0,0,776,1010.2a25.45,25.45,0,0,0,7.29,1.08,24.69,24.69,0,0,0,23.6-17.11l4.39-14A24.13,24.13,0,0,0,795,949.84Z"/><path class="cls-1" d="M773,1019.88a24.71,24.71,0,0,0-30.85,16L738,1049.15a24.19,24.19,0,0,0,16.31,30.35,25,25,0,0,0,7.27,1,24.67,24.67,0,0,0,23.6-17.1l4.15-13.24A24.19,24.19,0,0,0,773,1019.88Z"/><path class="cls-2" d="M1074.28,171.62l-12.3-1.71c-6.18-.91-13.42-6.17-16.16-11.55l-5.56-11c-2.69-5.49-7.22-5.49-10,0l-5.51,11c-2.77,5.38-10,10.64-16.16,11.55l-12.33,1.71c-6.17.89-7.53,5.06-3.1,9.4l8.92,8.48c4.46,4.31,7.24,12.68,6.2,18.72l-2.1,12c-1.07,6,2.57,8.65,8,5.78l11.06-5.64c5.51-2.88,14.5-2.88,20,0l11,5.64c5.51,2.87,9.18.26,8.11-5.78l-2.12-12c-1-6,1.76-14.41,6.19-18.72l8.92-8.48C1081.84,176.68,1080.48,172.51,1074.28,171.62Z"/><path class="cls-3" d="M1025,279.77c-60-.09-115.93-31.73-145.82-82.58a163.73,163.73,0,0,1,.09-165.45A20.31,20.31,0,0,0,878.9,11,21.46,21.46,0,0,0,860.4.69,212.91,212.91,0,0,0,755.61,28.2,207.65,207.65,0,0,0,682.33,98c80,52.57,134.56,139.77,140.93,239.71a280.57,280.57,0,0,1,135.52,52.66c2.48-1.22,5-2.2,7.44-3.56a209.19,209.19,0,0,0,77-76,20.27,20.27,0,0,0,0-20.65A21.14,21.14,0,0,0,1025,279.77Z"/><path class="cls-4" d="M792.46,394.72a201.11,201.11,0,0,0-31.78,2.46,240.11,240.11,0,0,0,3.51-39.79c0-139.84-115.21-253.28-257.6-253.28-138.41,0-251.09,107.68-256.93,242.47C120.47,353.07,17.85,457.71,17.85,586.22,17.85,719,127.29,826.5,262.38,826.5H792.46c121.29,0,219.67-96.57,219.67-215.93C1012.13,491.38,913.75,394.72,792.46,394.72Z"/></svg>