<svg id="Layer_1" data-name="Layer 1" xmlns="http://www.w3.org/2000/svg" viewBox="0 0 654.64 654.64"><defs><style>.cls-1{fill:#f7cf47;}.cls-2{fill:#80bfcf;}.cls-3{fill:#788a8e;}.cls-4{fill:#b8cbd1;}</style></defs><title>Drizzle</title><path class="cls-1" d="M651.14,103.61l-7.59-1a15,15,0,0,1-10-7l-3.43-6.67c-1.67-3.31-4.43-3.31-6.14,0l-3.39,6.67a15.08,15.08,0,0,1-10,7l-7.6,1c-3.79.54-4.62,3.08-1.91,5.71l5.5,5.13a14.09,14.09,0,0,1,3.82,11.35l-1.3,7.3c-.66,3.67,1.59,5.25,5,3.51l6.82-3.42a15.09,15.09,0,0,1,12.31,0l6.79,3.42c3.4,1.74,5.64.16,5-3.51l-1.29-7.3a14.16,14.16,0,0,1,3.82-11.35l5.48-5.13C655.78,106.69,654.93,104.15,651.14,103.61Z"/><path class="cls-2" d="M620.73,169.17c-37,0-71.46-19.23-89.88-50.06a97.84,97.84,0,0,1,.07-100.3,12.1,12.1,0,0,0-.21-12.54A13.3,13.3,0,0,0,519.31,0a133.11,133.11,0,0,0-64.6,16.66A127,127,0,0,0,409.55,59c49.31,31.85,82.94,84.71,86.86,145.31a174.42,174.42,0,0,1,83.52,31.93c1.53-.75,3.1-1.35,4.6-2.17A128,128,0,0,0,632,188a12.15,12.15,0,0,0,0-12.53A13.06,13.06,0,0,0,620.73,169.17Z"/><path class="cls-3" d="M477.43,238.87a126.14,126.14,0,0,0-19.59,1.48A143,143,0,0,0,460,216.23c0-84.76-71-153.54-158.78-153.54-85.31,0-154.77,65.27-158.37,147C63.24,213.63,0,277,0,355c0,80.5,67.44,145.66,150.71,145.66H477.43c74.74,0,135.4-58.57,135.4-130.9S552.17,238.87,477.43,238.87ZM182.67,483.64c-14.68,0-26.54-11.47-26.54-25.65s11.86-25.65,26.54-25.65S209.2,443.82,209.2,458,197.3,483.64,182.67,483.64Zm61.89-85.53c-14.67,0-26.54-11.43-26.54-25.64s11.87-25.64,26.54-25.64,26.53,11.49,26.53,25.64S259.22,398.11,244.56,398.11Zm61.91,85.53c-14.67,0-26.53-11.47-26.53-25.65s11.86-25.65,26.53-25.65S333,443.82,333,458,321.11,483.64,306.47,483.64Zm61.89-85.53c-14.65,0-26.52-11.43-26.52-25.64s11.87-25.64,26.52-25.64,26.54,11.49,26.54,25.64S383,398.11,368.36,398.11Zm61.92,85.53c-14.66,0-26.54-11.47-26.54-25.65s11.88-25.65,26.54-25.65S456.8,443.82,456.8,458,444.91,483.64,430.28,483.64Z"/><path class="cls-4" d="M182.67,603.34c-14.68,0-26.54,11.5-26.54,25.66s11.86,25.64,26.54,25.64S209.2,643.19,209.2,629,197.3,603.34,182.67,603.34Z"/><path class="cls-4" d="M306.47,603.34c-14.67,0-26.53,11.5-26.53,25.66s11.86,25.64,26.53,25.64S333,643.19,333,629,321.11,603.34,306.47,603.34Z"/><path class="cls-4" d="M430.28,603.34c-14.66,0-26.54,11.5-26.54,25.66s11.88,25.64,26.54,25.64S456.8,643.19,456.8,629,444.91,603.34,430.28,603.34Z"/><path class="cls-4" d="M244.56,517.83c-14.67,0-26.54,11.49-26.54,25.66s11.87,25.64,26.54,25.64,26.53-11.43,26.53-25.64S259.22,517.83,244.56,517.83Z"/><path class="cls-4" d="M368.36,517.83c-14.65,0-26.52,11.49-26.52,25.66s11.87,25.64,26.52,25.64,26.54-11.43,26.54-25.64S383,517.83,368.36,517.83Z"/></svg>