<svg id="Layer_1" data-name="Layer 1" xmlns="http://www.w3.org/2000/svg" viewBox="0 0 1080 1080"><defs><style>.cls-1{fill:#ff6c6c;}.cls-1,.cls-2{stroke:#000;stroke-miterlimit:10;stroke-width:24.9px;}.cls-2{fill:#b8cbd1;}</style></defs><title>pressure</title><circle class="cls-1" cx="540.09" cy="761.18" r="193.39" transform="translate(-380.05 604.85) rotate(-45)"/><path class="cls-2" d="M705.86,506.76V181c0-91.41-74.36-165.77-165.77-165.77S374.32,89.59,374.32,181V506.76c-85.6,55.91-138.14,151.94-138.14,254.42,0,167.6,136.34,303.91,303.91,303.91S844,928.78,844,761.18C844,658.7,791.46,562.67,705.86,506.76ZM540.09,1009.84c-137.11,0-248.66-111.55-248.66-248.66,0-88.21,47.67-170.62,124.35-215.07l13.79-8V181a110.52,110.52,0,1,1,221,0V538.11l13.79,8C741.09,590.56,788.75,673,788.75,761.18,788.75,898.29,677.2,1009.84,540.09,1009.84Z"/></svg>