<svg id="Layer_1" data-name="Layer 1" xmlns="http://www.w3.org/2000/svg" viewBox="0 0 654.64 654.64"><defs><style>.cls-1{fill:#90a8b0;}.cls-2{fill:#b8cbd1;}</style></defs><title>Atmosphere</title><path class="cls-1" d="M510,196.11a130.73,130.73,0,0,0-20.92,1.64,163.51,163.51,0,0,0,2.31-26.86C491.39,76.55,415.52,0,321.79,0,230.66,0,156.46,72.65,152.62,163.63,67.57,168,0,238.6,0,325.33,0,414.93,72,487.5,161,487.5H510c79.85,0,144.64-65.24,144.64-145.72S589.85,196.11,510,196.11ZM195.33,468.93A27.86,27.86,0,1,1,223,441.07,27.75,27.75,0,0,1,195.33,468.93Zm64.51-92.86a27.86,27.86,0,1,1,27.64-27.85A27.73,27.73,0,0,1,259.84,376.07Zm64.51,92.86A27.86,27.86,0,1,1,352,441.07,27.73,27.73,0,0,1,324.35,468.93Zm64.51-92.86a27.86,27.86,0,1,1,27.65-27.85A27.72,27.72,0,0,1,388.86,376.07Zm64.52,92.86A27.86,27.86,0,1,1,481,441.07,27.73,27.73,0,0,1,453.38,468.93Z"/><path class="cls-2" d="M195.33,598.93A27.86,27.86,0,1,0,223,626.79,27.76,27.76,0,0,0,195.33,598.93Z"/><path class="cls-2" d="M324.35,598.93A27.86,27.86,0,1,0,352,626.79,27.75,27.75,0,0,0,324.35,598.93Z"/><path class="cls-2" d="M453.38,598.93A27.86,27.86,0,1,0,481,626.79,27.75,27.75,0,0,0,453.38,598.93Z"/><path class="cls-2" d="M259.84,506.07a27.86,27.86,0,1,0,27.64,27.86A27.75,27.75,0,0,0,259.84,506.07Z"/><path class="cls-2" d="M388.86,506.07a27.86,27.86,0,1,0,27.65,27.86A27.75,27.75,0,0,0,388.86,506.07Z"/></svg>