<svg id="Layer_1" data-name="Layer 1" xmlns="http://www.w3.org/2000/svg" viewBox="0 0 1080 1080"><defs><style>.cls-1{fill:#c8f5ff;}</style></defs><title>humidity</title><path class="cls-1" d="M584.44,937.31c0,58.29-47.27,111.89-105.56,111.89S373.33,995.6,373.33,937.31,478.88,719.87,478.88,719.87,584.44,879,584.44,937.31Z"/><path class="cls-1" d="M371.22,624.87a126.67,126.67,0,1,1-253.33,0c0-70,126.67-253.32,126.67-253.32S371.22,554.91,371.22,624.87Z"/><path class="cls-1" d="M962.32,513c0,128.24-104,232.21-232.22,232.21S497.88,641.23,497.88,513,730.1,21.11,730.1,21.11,962.32,384.74,962.32,513Z"/><path d="M519,491.88a21.11,21.11,0,1,1-21.11-21.11A21.11,21.11,0,0,1,519,491.88Z"/><path d="M899,513a21.12,21.12,0,0,0-42.23,0A126.8,126.8,0,0,1,730.1,639.65a21.11,21.11,0,0,0,0,42.22C823.23,681.87,899,606.11,899,513Z"/><path d="M459.18,718.76C448,735.59,350.11,885,350.11,947.87c0,72.09,58,133,126.66,133s126.67-60.9,126.67-133c0-62.84-97.91-212.28-109.07-229.11a21.12,21.12,0,0,0-35.19,0Zm102,229.11c0,48.35-39.46,90.77-84.45,90.77s-84.44-42.42-84.44-90.77c0-32.54,46.37-117.44,84.44-178.4C514.85,830.43,561.22,915.33,561.22,947.87Z"/><path d="M244.56,350.44a21.09,21.09,0,0,0-17.37,9.11C213.84,378.87,96.78,550.48,96.78,624.87c0,81.49,66.29,147.78,147.78,147.78s147.77-66.29,147.77-147.78c0-74.39-117.06-246-130.41-265.32A21.09,21.09,0,0,0,244.56,350.44Zm0,380A105.67,105.67,0,0,1,139,624.87c0-40.82,59-144.47,105.56-215.47,46.51,71,105.55,174.62,105.55,215.47A105.67,105.67,0,0,1,244.56,730.43Z"/><path d="M747.9,9.75a21.11,21.11,0,0,0-35.59,0c-6.08,9.52-149.58,235-209.48,393.92a21.11,21.11,0,0,0,39.51,14.9C588.47,296.14,689.28,127.32,730.16,60.92,802.33,177.63,941.21,421.17,941.21,513c0,116.4-94.7,211.1-211.11,211.1-94.25,0-177.83-63.29-203.27-153.91a21.12,21.12,0,0,0-40.66,11.41C516.71,690.35,617,766.32,730.1,766.32c139.69,0,253.33-113.65,253.33-253.33C983.43,396.62,808.11,103.9,747.9,9.75Z"/></svg>