<svg id="Layer_1" data-name="Layer 1" xmlns="http://www.w3.org/2000/svg" viewBox="0 0 1078.37 1002.84"><defs><style>.cls-1{fill:#f7cf47;}.cls-2{fill:#b8cbd1;}.cls-3{fill:#0b778d;}</style></defs><title>Mist-01</title><path class="cls-1" d="M1052.84,302H973.7a184.76,184.76,0,0,0-11.4-42.9l68.45-39.51a26.31,26.31,0,0,0-26.3-45.58l-68.52,39.57a186.47,186.47,0,0,0-31.36-31.36l39.55-68.53a26.29,26.29,0,1,0-45.54-26.29L859,155.84a183.4,183.4,0,0,0-42.83-11.38V65.29a26.31,26.31,0,0,0-52.61,0v79.17a183.67,183.67,0,0,0-42.87,11.41L681.17,87.38a26.32,26.32,0,1,0-45.59,26.3l39.6,68.55c-4.12,3.23-7.91,6.85-11.7,10.39,61.85,52.22,102.45,128.89,106.08,215.1A260.46,260.46,0,0,1,913,466.8a185.86,185.86,0,0,0,22.91-23.86l68.57,39.59a25.81,25.81,0,0,0,13.1,3.54A26.3,26.3,0,0,0,1030.8,437l-68.52-39.55a181.7,181.7,0,0,0,11.39-42.89h79.17a26.29,26.29,0,1,0,0-52.58Z" transform="translate(-0.78 -39)"/><path class="cls-2" d="M746.74,457.08a192.18,192.18,0,0,0-30.61,2.39,236.84,236.84,0,0,0,3.4-39c0-137-111-248.09-248.07-248.09-133.29,0-241.83,105.47-247.45,237.55C99.58,416.26.78,518.76.78,644.66a234.47,234.47,0,0,0,59.39,156,80.77,80.77,0,0,1,14.33-1.47H176.41a80.52,80.52,0,0,1,59.84-134.8H746.74a80.81,80.81,0,0,1,44.54,148.28,80.61,80.61,0,0,1,34.38,52C903.35,833.42,958.3,757.43,958.3,668.55,958.3,551.77,863.52,457.08,746.74,457.08Z" transform="translate(-0.78 -39)"/><path class="cls-3" d="M746.74,718.33H236.25a27,27,0,0,0,0,53.92H746.74a27,27,0,1,0,0-53.92Z" transform="translate(-0.78 -39)"/><path class="cls-3" d="M612,880.08a27,27,0,0,0-27-27H74.5a27,27,0,0,0,0,53.92H585A27,27,0,0,0,612,880.08Z" transform="translate(-0.78 -39)"/><path class="cls-3" d="M746.74,853.12h-66a27,27,0,0,0,0,53.92h66a27,27,0,1,0,0-53.92Z" transform="translate(-0.78 -39)"/><path class="cls-3" d="M665.87,987.92H155.37a27,27,0,0,0,0,53.92h510.5a27,27,0,1,0,0-53.92Z" transform="translate(-0.78 -39)"/></svg>