<svg id="Layer_1" data-name="Layer 1" xmlns="http://www.w3.org/2000/svg" viewBox="0 0 1080 1080"><defs><style>.cls-1{fill:#b8cbd1;stroke:#0c0c0c;stroke-miterlimit:10;stroke-width:33.68px;}.cls-2{fill:#0b778d;}</style></defs><title>pressure</title><path class="cls-1" d="M820,318.7a202.27,202.27,0,0,0-32.08,2.51,249.32,249.32,0,0,0,3.56-40.85c0-143.5-116.28-259.95-259.92-259.95-139.68,0-253.39,110.51-259.27,248.89C141.93,276,38.38,383.35,38.38,515.24c0,74,32.73,140.25,84.34,185.43,1-86.12,71.24-155.89,157.61-155.89A86.86,86.86,0,0,1,347.89,686.3h481c37.15,0,68.67,23.54,81.09,56.36,77.49-34.52,131.61-112.07,131.61-202.41C1041.62,417.92,942.35,318.7,820,318.7Z"/><path class="cls-2" d="M828.92,860.13H483.13a99.73,99.73,0,1,0,0,199.46,29,29,0,1,0,0-57.94,41.79,41.79,0,1,1,0-83.58H828.92a29,29,0,0,0,0-57.94Z"/><path class="cls-2" d="M828.92,744.24H280.33a41.79,41.79,0,1,1,0-83.57,29,29,0,0,0,0-57.95,99.73,99.73,0,1,0,0,199.46H828.92a29,29,0,0,0,0-57.94Z"/></svg>