<svg id="Layer_1" data-name="Layer 1" xmlns="http://www.w3.org/2000/svg" viewBox="0 0 654.64 654.64"><defs><style>.cls-1{fill:#788a8e;}.cls-2{fill:#5fc3d7;}</style></defs><title>Rain</title><path class="cls-1" d="M509.85,192.48A132.73,132.73,0,0,0,489,194.1a160.07,160.07,0,0,0,2.29-26.39C491.24,75,415.46-.21,321.84-.21c-91,0-165.17,71.39-169,160.79C67.89,164.86.41,234.23.41,319.46c0,88,72,159.34,160.81,159.34H509.85c79.75,0,144.47-64.1,144.47-143.18S589.6,192.48,509.85,192.48Z"/><path class="cls-2" d="M208.7,511.4a23.1,23.1,0,0,0-31.43,8.34L118.8,620.1a22.69,22.69,0,0,0,8.41,31.17,23.15,23.15,0,0,0,31.43-8.35l58.47-100.36A22.69,22.69,0,0,0,208.7,511.4Z"/><path class="cls-2" d="M349.69,511.4a23.11,23.11,0,0,0-31.43,8.34L259.79,620.1a22.72,22.72,0,0,0,8.41,31.17,23.15,23.15,0,0,0,31.43-8.35L358.1,542.56A22.68,22.68,0,0,0,349.69,511.4Z"/><path class="cls-2" d="M490.68,511.4a23.08,23.08,0,0,0-31.42,8.34L400.8,620.1a22.69,22.69,0,0,0,8.41,31.17,23.15,23.15,0,0,0,31.43-8.35l58.47-100.36A22.7,22.7,0,0,0,490.68,511.4Z"/></svg>