<svg id="Layer_1" data-name="Layer 1" xmlns="http://www.w3.org/2000/svg" viewBox="0 0 654.64 654.64"><defs><style>.cls-1{fill:#80bfcf;}</style></defs><title>Snow</title><path class="cls-1" d="M619,354.4,471.75,371,391,327.35l80.8-43.66,147.32,16.62a37,37,0,0,0,3.79.21c15.86,0,29.6-11.09,31.56-26.2,2.06-16.32-10.35-31.15-27.78-33.1l-63.15-7.12,55.09-29.75c15.18-8.24,20.42-26.43,11.63-40.66s-28.33-19.09-43.45-10.9l-55,29.75,25-54.69c6.9-15.12-.6-32.62-16.74-39.07s-34.77.56-41.73,15.67L439.91,232.16l-80.82,43.63V188.44l89-111.07c10.58-13.16,7.71-31.82-6.37-41.66s-34-7.15-44.46,5.95L359.09,89.27V29.76C359.09,13.32,344.88,0,327.32,0s-31.77,13.32-31.77,29.76V89.27L257.34,41.66c-10.5-13.13-30.43-15.87-44.46-5.95s-16.95,28.5-6.37,41.66l89,111.07v87.34l-80.81-43.64L156.42,104.43c-6.95-15.12-25.69-22.12-41.73-15.66s-23.63,24-16.74,39.05l25,54.7-55-29.74c-15.2-8.22-34.64-3.35-43.44,10.9s-3.56,32.43,11.62,40.65l55.09,29.76L28,241.2C10.58,243.16-1.84,258,.22,274.3c2,15.12,15.7,26.21,31.56,26.21a34.58,34.58,0,0,0,3.8-.22l147.31-16.6,80.83,43.66L182.89,371,35.58,354.41c-17-2-33.23,9.67-35.36,26S10.58,411.55,28,413.49l63.15,7.13L36.06,450.36C20.88,458.58,15.65,476.77,24.44,491,30.35,500.56,41,505.88,52,505.88a33.35,33.35,0,0,0,15.88-4l55-29.74L98,526.9c-6.89,15.08.6,32.6,16.74,39a33.61,33.61,0,0,0,12.48,2.42c12.34,0,24.12-6.8,29.25-18.08l58.32-127.73,80.81-43.64v87.3l-89,111.06c-10.58,13.16-7.71,31.82,6.37,41.66s34,7.2,44.46-5.95l38.21-47.61v59.52c0,16.43,14.21,29.75,31.77,29.75s31.77-13.32,31.77-29.75V565.37L397.3,613a32.39,32.39,0,0,0,25.42,11.91,32.88,32.88,0,0,0,19-6c14.08-9.84,16.95-28.5,6.37-41.66l-89-111.06V378.89l80.82,43.66,58.28,127.69c5.12,11.29,16.91,18.08,29.24,18.08a33.64,33.64,0,0,0,12.49-2.4c16.12-6.46,23.63-23.95,16.74-39l-25-54.74,55.07,29.75a33.35,33.35,0,0,0,15.88,4c11,0,21.65-5.32,27.57-14.86,8.79-14.24,3.55-32.44-11.63-40.66L563.49,420.6l63.12-7.13c17.43-1.94,29.84-16.76,27.78-33.09S636.23,352.41,619,354.4Z"/></svg>