<svg id="Layer_1" data-name="Layer 1" xmlns="http://www.w3.org/2000/svg" viewBox="0 0 654.64 654.64"><defs><style>.cls-1{fill:#f7cf47;}.cls-2{fill:#90a8b0;}.cls-3{fill:#d3ad1b;}.cls-4{fill:#5fc3d7;}</style></defs><title>Thunder</title><path class="cls-1" d="M638.68,156.76H590.62a107.31,107.31,0,0,0-6.9-25.47l41.55-23.46a15.46,15.46,0,0,0,5.86-21.34,16.18,16.18,0,0,0-21.82-5.72L567.7,104.26a111.42,111.42,0,0,0-19-18.62l24-40.69a15.41,15.41,0,0,0-5.84-21.33A16.1,16.1,0,0,0,545,29.34L521,70a114.42,114.42,0,0,0-26-6.77v-47a16,16,0,0,0-31.94,0v47a114.71,114.71,0,0,0-26,6.78l-24-40.67a16.2,16.2,0,0,0-21.83-5.72A15.47,15.47,0,0,0,385.37,45l24,40.7c-2.5,1.93-4.8,4.07-7.11,6.18,37.55,31,62.19,76.53,64.41,127.72a160,160,0,0,1,87.09,35.08,112,112,0,0,0,13.9-14.16L609.32,264a16.18,16.18,0,0,0,21.82-5.71,15.47,15.47,0,0,0-5.85-21.34l-41.57-23.48a107.1,107.1,0,0,0,6.9-25.46h48.06a15.62,15.62,0,1,0,0-31.23Z"/><path class="cls-2" d="M452.85,248.87a120.4,120.4,0,0,0-18.57,1.41,137.55,137.55,0,0,0,2.05-23.15c0-81.32-67.37-147.3-150.6-147.3-80.91,0-146.82,62.62-150.22,141C60,224.63,0,285.49,0,360.26,0,412.51,29.33,458,72.73,482l44.51-125.82c8.06-22.71,31.72-39.2,56.29-39.2H234c16.71,0,31.28,7.73,39,20.69s7.38,29.17-.88,43.39l-29.62,51.07h29.71c18.12,0,32.92,8.57,39.56,22.89s3.55,30.87-8.35,44.24l-.74.82H452.85c70.9,0,128.44-56.23,128.44-125.6S523.75,248.87,452.85,248.87Z"/><path class="cls-3" d="M272.19,464.11H205.36c-10.5,0-14.85-7.31-9.67-16.23l47.95-82.69c5.19-8.92.86-16.23-9.65-16.23H173.53c-10.51,0-21.9,7.94-25.34,17.65L103.41,493.14c-3.42,9.7,2.36,17.66,12.84,17.66H164c10.49,0,15.65,7.69,11.43,17.11L123.91,643.08c-4.21,9.39-2,10.77,4.93,3L278.71,478.17C285.61,470.44,282.67,464.11,272.19,464.11Z"/><path class="cls-4" d="M310.59,526.85A20.51,20.51,0,0,0,285,540.06l-27.85,88.05a19.94,19.94,0,0,0,13.52,25,20.76,20.76,0,0,0,6,.9,20.43,20.43,0,0,0,19.54-14.11l27.84-88A19.91,19.91,0,0,0,310.59,526.85Z"/><path class="cls-4" d="M419.55,526.85A20.5,20.5,0,0,0,394,540.06l-27.84,88.05a19.91,19.91,0,0,0,13.5,25,20.76,20.76,0,0,0,6,.9,20.44,20.44,0,0,0,19.55-14.11l27.84-88A19.91,19.91,0,0,0,419.55,526.85Z"/></svg>