<svg id="Layer_1" data-name="Layer 1" xmlns="http://www.w3.org/2000/svg" viewBox="0 0 1920 1080"><defs><style>.cls-1{fill:#191919;}.cls-2{fill:#ffbc00;fill-rule:evenodd;}.cls-3{fill:#fff;}</style></defs><title>wallb</title><rect class="cls-1" y="0.43" width="1920" height="1080"/><path class="cls-2" d="M567.31,101.67a93.83,93.83,0,1,1-119.24,58.19,93.93,93.93,0,0,1,119.24-58.19Z"/><path class="cls-2" d="M1446.55,781.09a93.83,93.83,0,1,1-119.24,58.19,93.81,93.81,0,0,1,119.24-58.19Z"/><path class="cls-2" d="M1715.14,95.74a93.83,93.83,0,1,1-119.25,58.19,93.8,93.8,0,0,1,119.25-58.19Z"/><path class="cls-2" d="M1052.77,793.37a93.83,93.83,0,1,1-119.25,58.19,93.8,93.8,0,0,1,119.25-58.19Z"/><path class="cls-2" d="M1368.9,58.87a93.83,93.83,0,1,1-119.25,58.19A93.81,93.81,0,0,1,1368.9,58.87Z"/><path class="cls-2" d="M610.79,787.28a93.83,93.83,0,1,1-119.24,58.19,93.81,93.81,0,0,1,119.24-58.19Z"/><path class="cls-2" d="M924.9,71.39a93.82,93.82,0,0,1-61.06,177.43c-48.89-16.74-74.93-70.19-58.19-119.25A93.8,93.8,0,0,1,924.9,71.39Z"/><path class="cls-2" d="M210.26,765A93.85,93.85,0,1,1,90.85,823.14,93.8,93.8,0,0,1,210.26,765Z"/><path class="cls-3" d="M1619.06,349.64h-16.51l11.55-11.56a4.23,4.23,0,0,0-6-6l-11.55,11.55V327.31a4.23,4.23,0,1,0-8.46,0v16.34l-11.56-11.55a4.23,4.23,0,0,0-6,6l11.56,11.56h-16.35a4.23,4.23,0,0,0,0,8.45h16.35l-11.56,11.56a4.23,4.23,0,1,0,6,6l11.56-11.56v16.35a4.23,4.23,0,1,0,8.46,0V364.07l11.55,11.56a4.23,4.23,0,0,0,6-6l-11.55-11.56h16.51a4.23,4.23,0,1,0,0-8.45Z"/><path class="cls-3" d="M1828.8,159.17a34.59,34.59,0,0,0-13,2.57c.12-1.55.18-3.09.18-4.6A69.91,69.91,0,0,0,1687,119.74a68.84,68.84,0,0,0-25.84-5,69.94,69.94,0,0,0-69.86,69.86c0,1.48.06,3,.18,4.59a34.27,34.27,0,0,0-13-2.56,33.91,33.91,0,0,0,0,67.82h222.09a24.12,24.12,0,0,0,24-24.18,24.4,24.4,0,0,0-.24-3.22h4.47a33.92,33.92,0,0,0,0-67.83ZM1800.56,246H1578.47a25.46,25.46,0,1,1,15.64-45.58,4.22,4.22,0,0,0,6.8-4,71.42,71.42,0,0,1-1.13-11.82,61.39,61.39,0,0,1,118.53-22.46c.18.48.37.95.55,1.44s.25.73.38,1.09c.25.74.49,1.48.71,2.23.08.25.15.5.22.76.3,1,.58,2.1.83,3.16a4.14,4.14,0,0,0,.27.77c0,.06,0,.13.07.19a3.49,3.49,0,0,0,.45.68l.11.16a3.5,3.5,0,0,0,.53.49c.07.06.13.14.21.2a3.48,3.48,0,0,0,.76.41l.14.08h0a4.25,4.25,0,0,0,3.9-.4,39.66,39.66,0,0,1,61.28,33c0,1.68-.17,3.47-.33,5.19a4.24,4.24,0,0,0,1.73,3.81,4.19,4.19,0,0,0,2,.78,4.14,4.14,0,0,0,2.13-.32,16.26,16.26,0,0,1,8.37-1l.53.08a16.18,16.18,0,0,1,1.83.42l.26.07c.58.19,1.14.42,1.69.66l.7.34c.36.18.71.39,1.06.6s.89.59,1.31.91l.54.42c.34.29.68.59,1,.9v0a15.67,15.67,0,0,1-11,26.72Zm28.24-27.41h-7.18a24.22,24.22,0,0,0-13.78-11.21l-.3-.09a24.32,24.32,0,0,0-4.27-.88l-.53-.05c-.72-.07-1.45-.11-2.18-.11a28.86,28.86,0,0,0-3.39.2v0a48.16,48.16,0,0,0-69.4-42.93c-.3-.92-.61-1.84-.94-2.74a69.14,69.14,0,0,0-32.06-37.4,61.46,61.46,0,0,1,112.72,33.84,57.37,57.37,0,0,1-1.26,11.66,4.23,4.23,0,0,0,6.71,4.22,26.16,26.16,0,0,1,15.86-5.39,25.46,25.46,0,0,1,0,50.91Z"/><path class="cls-3" d="M1566.88,320a4.25,4.25,0,0,0,5.78-1.55l26.56-46a4.23,4.23,0,0,0-7.33-4.23l-26.56,46A4.24,4.24,0,0,0,1566.88,320Z"/><path class="cls-3" d="M1662.28,266.64a4.24,4.24,0,0,0-5.78,1.55l-26.55,46a4.23,4.23,0,0,0,7.32,4.23l26.56-46A4.23,4.23,0,0,0,1662.28,266.64Z"/><path class="cls-3" d="M1791.69,266.65a4.23,4.23,0,0,0-5.79,1.53l-26.72,46a4.23,4.23,0,0,0,7.31,4.25l26.73-46A4.23,4.23,0,0,0,1791.69,266.65Z"/><path class="cls-3" d="M1672.43,327.2a4.22,4.22,0,0,0-5.78,1.55l-26.55,46a4.23,4.23,0,0,0,1.54,5.78,4.3,4.3,0,0,0,2.12.57,4.21,4.21,0,0,0,3.66-2.12L1674,333A4.23,4.23,0,0,0,1672.43,327.2Z"/><path class="cls-3" d="M1737,327.2a4.23,4.23,0,0,0-5.78,1.55l-26.55,46A4.23,4.23,0,1,0,1712,379l26.55-46A4.21,4.21,0,0,0,1737,327.2Z"/><path class="cls-3" d="M1738.65,289.08h-16.4l11.6-11.55a4.23,4.23,0,1,0-6-6l-11.56,11.51v-16.3a4.23,4.23,0,0,0-8.46,0v16.47l-11.73-11.68a4.22,4.22,0,1,0-6,6l11.6,11.55h-16.4a4.23,4.23,0,1,0,0,8.46h16.4l-11.6,11.55a4.22,4.22,0,1,0,6,6l11.73-11.68v16.47a4.23,4.23,0,0,0,8.46,0v-16.3l11.56,11.51a4.24,4.24,0,0,0,3,1.23,4.23,4.23,0,0,0,3-7.22l-11.6-11.55h16.4a4.23,4.23,0,0,0,0-8.46Z"/><path class="cls-3" d="M1125.5,854.43a24.72,24.72,0,0,0-3.38.22,48,48,0,0,0-47.87-47.92,47.16,47.16,0,0,0-21.4,5.07,69.81,69.81,0,0,0-136.41,21c0,1.62,0,3.17.13,4.67a33.62,33.62,0,0,0-13-2.64,33.92,33.92,0,1,0,0,67.83H967l-8.28,34.54a4.23,4.23,0,0,0,5.38,5l32.82-10.34-22.94,82.31a4.23,4.23,0,0,0,7.71,3.3l68.56-114.82h75.3a24.11,24.11,0,1,0,0-48.21Zm-118.39,72.18a4.24,4.24,0,0,0-5.34-5.17l-33.13,10.44,18.28-76.26h41.9l-16.49,39.3a4.23,4.23,0,0,0,5.17,5.66l29.66-9.34L990.55,986Zm118.39-32.43h-70.21l4.79-8.09,0-.06h0a5.25,5.25,0,0,0,.22-.55,3.75,3.75,0,0,0,.25-.63,3.68,3.68,0,0,0,.05-.58,2.15,2.15,0,0,0-.09-1.33,3.61,3.61,0,0,0-.12-.57,4.14,4.14,0,0,0-.48-.84c-.06-.09-.09-.19-.15-.28h0a4,4,0,0,0-.39-.43l-.05,0a3.17,3.17,0,0,0-.34-.28l-.16-.12-.19-.11a4.21,4.21,0,0,0-3.45-.43l-31.56,9.95L1039.08,853a4.23,4.23,0,0,0-3.9-5.86H983.59a4.25,4.25,0,0,0-2.62.91l-.05,0c-.16.14-.32.28-.46.43l-.16.21c-.09.11-.18.22-.26.34a3.84,3.84,0,0,0-.28.53.41.41,0,0,0,0,.09,3.29,3.29,0,0,0-.23.69l-.09.38-10.46,43.4H903.58a25.46,25.46,0,1,1,0-50.91,25.13,25.13,0,0,1,15.63,5.5A4.23,4.23,0,0,0,926,844.6a57.31,57.31,0,0,1-1.09-11.82,61.36,61.36,0,0,1,121.21-13.59,4.23,4.23,0,0,0,6.49,2.55,38.53,38.53,0,0,1,21.65-6.55,39.54,39.54,0,0,1,39.41,39.58c0,1.67-.16,3.39-.32,5.2a4.23,4.23,0,0,0,6.1,4.17,13.44,13.44,0,0,1,6.06-1.25,15.65,15.65,0,1,1,0,31.29Z"/><path class="cls-3" d="M555.28,138.13a4.27,4.27,0,0,0,.23,3.69l5.8,10.22,5.92,10a4.22,4.22,0,0,0,3.07,2,3.6,3.6,0,0,0,.56,0,4.27,4.27,0,0,0,2.94-1.18L591.37,146l17.76-16.92A4.23,4.23,0,0,0,605,122l-23.48,6.93L558,135.67A4.25,4.25,0,0,0,555.28,138.13ZM583.9,137l6.73-2-18.85,18.07-3.16-5.32-3.1-5.48Z"/><path class="cls-3" d="M621.75,175.37l-47.52-11.5A4.23,4.23,0,0,0,569,168v23.17a4.24,4.24,0,0,0,1.63,3.34,4,4,0,0,0,.65.41,4.78,4.78,0,0,0-1,0,4.24,4.24,0,0,0-3.07,2.06l-5.44,9.35c-.62-.38-1.24-.75-1.87-1.1a53.12,53.12,0,0,0-46.54-79,53.53,53.53,0,0,0-48.5,31c-.78-.19-1.55-.37-2.34-.53L471,141.82a4.24,4.24,0,0,0-2.51-6.15L445,128.91,421.7,122a4.22,4.22,0,0,0-4.13,7.1L435.17,146l9.84,9.37a69.87,69.87,0,0,0-66.29,69.77c0,1.62,0,3.17.13,4.67a33.59,33.59,0,0,0-13-2.64,33.92,33.92,0,1,0,0,67.83H587.78a24.11,24.11,0,1,0,0-48.21,26.56,26.56,0,0,0-3.38.21v0a47.78,47.78,0,0,0-3-16.8l.19.06L605.05,237a4.29,4.29,0,0,0,1.17.16h.07a4.23,4.23,0,0,0,2.54-7.58L591.39,213,573.8,196.05a4.37,4.37,0,0,0-1.06-.71,4.22,4.22,0,0,0,.49,0,4.53,4.53,0,0,0,1-.12l23.64-5.92,23.85-5.75a4.23,4.23,0,0,0,0-8.22ZM473,159.69a44.89,44.89,0,0,1,85.14,19.79,44.45,44.45,0,0,1-6,22.24l-.71-.21a47.38,47.38,0,0,0-13.76-2.38h-.13c-.35,0-.7,0-1.06,0l-.69,0c-.56,0-1.11,0-1.66,0l-.71,0a48.54,48.54,0,0,0-8,1.14l-.18,0c-.77.18-1.53.38-2.29.6l-.56.17c-.63.19-1.24.39-1.86.6l-.71.25c-.58.22-1.16.44-1.73.68l-.68.28c-.77.33-1.54.68-2.29,1-.19-.61-.42-1.21-.63-1.81-.12-.36-.24-.72-.37-1.07-.25-.67-.5-1.33-.76-2-.17-.41-.34-.81-.5-1.21-.28-.65-.55-1.29-.84-1.93-.4-.87-.81-1.73-1.25-2.58-.2-.4-.41-.79-.62-1.18-.39-.73-.79-1.46-1.21-2.17l-.45-.79a69.61,69.61,0,0,0-28.13-26.35l-.14-.06c-.95-.49-1.91-.94-2.88-1.38l-1.2-.53c-.6-.26-1.21-.51-1.82-.75ZM436,135,461,142.31l-6.16,10.78L441,139.9ZM587.78,255.26a15.65,15.65,0,1,1,0,31.29H365.86a25.46,25.46,0,1,1,0-50.91,25.13,25.13,0,0,1,15.63,5.5,4.23,4.23,0,0,0,6.79-4.13,58.5,58.5,0,0,1-1.11-11.86A61.39,61.39,0,0,1,471.08,168c.52.2,1,.42,1.56.64l2,.88c.79.37,1.57.75,2.33,1.15l.87.46c1,.57,2.08,1.16,3.09,1.79l.23.15a61.45,61.45,0,0,1,12.23,10.07h0a61.49,61.49,0,0,1,4.88,5.91l.33.45c.66.94,1.3,1.9,1.91,2.87l.56.91c.4.67.8,1.35,1.18,2,.22.4.45.8.66,1.2q.66,1.26,1.26,2.55c.26.56.51,1.13.76,1.71s.37.89.55,1.34c.38.93.73,1.87,1.06,2.82.19.54.38,1.07.55,1.61s.33,1.08.48,1.62c.29,1,.57,2,.8,3,0,0,0,.1,0,.15h0l1.37,6,5.12-3.45c.72-.49,1.46-.94,2.21-1.37.2-.12.41-.22.61-.33.59-.32,1.18-.64,1.79-.93l.57-.26c.69-.32,1.39-.61,2.1-.89l.29-.11a39.32,39.32,0,0,1,10.94-2.37l.42,0c.65,0,1.3-.05,2-.06a42.26,42.26,0,0,1,13.59,2.12,39.15,39.15,0,0,1,10.59,5.58,4.1,4.1,0,0,0,.61.56,39.88,39.88,0,0,1,4.43,3.89,39.26,39.26,0,0,1,11,27.23,51,51,0,0,1-.32,5.16,4.24,4.24,0,0,0,5.88,4.31A15.91,15.91,0,0,1,587.78,255.26Zm-2.24-36.18,5.27,5-6.88-2-8-2.43a43.75,43.75,0,0,0-5.74-6.73c-.52-.52-1.06-1-1.6-1.52l3.24-5.56Zm-8.08-33.34V173.36l25.26,6.12Z"/><path class="cls-3" d="M462.62,111.33l6.93,23.51a4.25,4.25,0,0,0,2.51,2.74,4.35,4.35,0,0,0,1.55.29,4.22,4.22,0,0,0,2.15-.59l9.91-5.88,10.15-5.75a4.17,4.17,0,0,0,2.11-4.14,4.19,4.19,0,0,0,.42.7,4.24,4.24,0,0,0,3.33,1.62h23.21a4.21,4.21,0,0,0,4-3,4.28,4.28,0,0,0-.13,1.75,4.2,4.2,0,0,0,2.08,3.06L551,137.3a4.28,4.28,0,0,0,3.71.27,4.23,4.23,0,0,0,2.49-2.76l6.76-23.48,6.93-23.51a4.23,4.23,0,0,0-7.12-4.12l-16.9,17.75L529.93,119a4.28,4.28,0,0,0-.93,1.52,4.35,4.35,0,0,0,.12-1,4.22,4.22,0,0,0-.28-1.51l-11.37-47a4.23,4.23,0,0,0-8.22,0L503.5,94.9l-5.92,23.68a4.26,4.26,0,0,0-.07,1.55,4.16,4.16,0,0,0-.73-1.09l-16.9-17.58L463,83.7a4.23,4.23,0,0,0-7.13,4.09Zm90.33-4,4.85-5.09-7.26,25L539.77,121ZM511.71,96.91l1.65-6.8,6.12,25.26H507.1ZM486.91,121l-5.48,3.1-5.31,3.15L470.74,109l-2-6.93Z"/><path class="cls-3" d="M1410.51,161a33.61,33.61,0,0,0-13,2.59c.09-1.54.13-3.13.13-4.78a69.86,69.86,0,0,0-128.75-37.4,68.93,68.93,0,0,0-25.84-5.06,69.94,69.94,0,0,0-69.86,69.86c0,1.6,0,3.15.13,4.64a33.21,33.21,0,0,0-13-2.61,33.91,33.91,0,1,0,0,67.82h221.91a24.13,24.13,0,0,0,24.19-24,25.27,25.27,0,0,0-.26-3.39h4.32a33.83,33.83,0,1,0,0-67.66Zm-28.25,86.61H1160.35a25.46,25.46,0,1,1,0-50.92,24.77,24.77,0,0,1,15.62,5.51,4.23,4.23,0,0,0,6.78-4.17,58.15,58.15,0,0,1-1.09-11.82A61.27,61.27,0,0,1,1285,141.6l.16.15c.49.46,1,.93,1.44,1.41s.88.91,1.31,1.37l.58.62a61.88,61.88,0,0,1,13.45,24l0,.06c.33,1.11.62,2.24.88,3.38,0,.15.1.28.15.42a5,5,0,0,0,.2.54,4.17,4.17,0,0,0,.29.44,3.51,3.51,0,0,0,.27.4,4.34,4.34,0,0,0,.54.51c.07.05.13.12.2.18a4,4,0,0,0,.76.42l.13.07h0a4.22,4.22,0,0,0,3.9-.39,38.89,38.89,0,0,1,21.69-6.57,39.54,39.54,0,0,1,39.41,39.58,27.53,27.53,0,0,1-.27,4.82,4.16,4.16,0,0,0,1.49,4,4.21,4.21,0,0,0,4.24.65,17.47,17.47,0,0,1,6.38-1.38,15.61,15.61,0,0,1,2.06.15c.24,0,.48.06.71.11.41.07.81.16,1.21.26a16.83,16.83,0,0,1,2.11.7l0,0a15.77,15.77,0,0,1,7.58,6.8,15.39,15.39,0,0,1,.8,1.63l0,.09a15.58,15.58,0,0,1-14.55,21.53Zm28.25-27.4h-7.13a23.78,23.78,0,0,0-18.46-12.2l-.39,0c-.75-.06-1.5-.11-2.27-.11a21.87,21.87,0,0,0-3.38.27,48,48,0,0,0-47.87-48c-.94,0-1.88,0-2.81.08-.25,0-.5,0-.75.06-.68,0-1.35.1-2,.18l-.36.05a46.88,46.88,0,0,0-15.43,4.71,69.12,69.12,0,0,0-12.52-23.06l-.29-.36c-.47-.56-.95-1.12-1.43-1.67l-.86-1-.15-.15a70.32,70.32,0,0,0-17.76-14,61.42,61.42,0,0,1,112.57,33.83,57.41,57.41,0,0,1-1.1,11.82,4.23,4.23,0,0,0,6.72,4.22,25.43,25.43,0,1,1,15.69,45.36Z"/><path class="cls-3" d="M1179.55,268.33a4.23,4.23,0,0,0-5.78,1.55L1147,316.05a4.23,4.23,0,0,0,1.55,5.78,4.13,4.13,0,0,0,2.11.57,4.2,4.2,0,0,0,3.66-2.11l26.73-46.18A4.23,4.23,0,0,0,1179.55,268.33Z"/><path class="cls-3" d="M1244.15,268.33a4.22,4.22,0,0,0-5.77,1.56l-26.56,46.18a4.23,4.23,0,0,0,7.33,4.21l26.56-46.18A4.23,4.23,0,0,0,1244.15,268.33Z"/><path class="cls-3" d="M1308.76,268.33a4.22,4.22,0,0,0-5.77,1.56l-26.56,46.18a4.23,4.23,0,0,0,7.34,4.21l26.55-46.18A4.22,4.22,0,0,0,1308.76,268.33Z"/><path class="cls-3" d="M1373.38,268.33a4.24,4.24,0,0,0-5.78,1.56l-26.55,46.18a4.23,4.23,0,0,0,7.33,4.21l26.55-46.18A4.22,4.22,0,0,0,1373.38,268.33Z"/><path class="cls-3" d="M1189.7,328.89a4.23,4.23,0,0,0-5.78,1.54l-26.73,46.18a4.23,4.23,0,0,0,1.54,5.78,4.3,4.3,0,0,0,2.12.57,4.22,4.22,0,0,0,3.66-2.11l26.73-46.18A4.23,4.23,0,0,0,1189.7,328.89Z"/><path class="cls-3" d="M1254.31,328.89a4.23,4.23,0,0,0-5.78,1.54l-26.72,46.18a4.23,4.23,0,1,0,7.32,4.24l26.72-46.18A4.23,4.23,0,0,0,1254.31,328.89Z"/><path class="cls-3" d="M1318.91,328.89a4.22,4.22,0,0,0-5.77,1.55l-26.56,46.18a4.23,4.23,0,0,0,1.56,5.77,4.12,4.12,0,0,0,2.1.57,4.22,4.22,0,0,0,3.67-2.12l26.56-46.18A4.22,4.22,0,0,0,1318.91,328.89Z"/><path class="cls-3" d="M688.78,909.07l-138.37-.17c-19.07,0-35.18,16.81-35.18,36.7a36.73,36.73,0,0,0,71.86,10.72,4.23,4.23,0,0,0-8.08-2.49,28.28,28.28,0,0,1-55.33-8.23c0-15.31,12.24-28.24,26.73-28.24l138.35.16h0a4.23,4.23,0,1,0,0-8.45Z"/><path class="cls-3" d="M681.5,897.9a4.23,4.23,0,1,0,0-8.45H515.4c-20.82,0-38.4-18.52-38.4-40.43a40.41,40.41,0,0,1,79-11.79,4.22,4.22,0,1,0,8.08-2.47A48.86,48.86,0,0,0,468.54,849c0,26.5,21.46,48.88,46.86,48.88Z"/><path class="cls-3" d="M710.08,870.67h-112c-9.37,0-17.59-8.77-17.59-18.77a18.68,18.68,0,0,1,36.54-5.39,4.23,4.23,0,0,0,8.11-2.42,27.14,27.14,0,0,0-53.11,7.81c0,14.76,11.93,27.23,26.05,27.23h112a4.23,4.23,0,0,0,0-8.46Z"/><path class="cls-3" d="M1397.33,847.06a53.28,53.28,0,1,0,53.28,53.28A53.34,53.34,0,0,0,1397.33,847.06Zm0,98.11a44.83,44.83,0,1,1,44.83-44.83A44.88,44.88,0,0,1,1397.33,945.17Z"/><path class="cls-3" d="M1385.66,844.69h23.21a4.23,4.23,0,0,0,4-5.74l-11.38-47a4.23,4.23,0,0,0-4.09-3.24h0a4.23,4.23,0,0,0-4.1,3.21l-5.93,23.87-5.75,23.69a4.25,4.25,0,0,0,.79,3.61A4.21,4.21,0,0,0,1385.66,844.69Zm9.86-26.89,1.75-7.08,6.19,25.52H1391Z"/><path class="cls-3" d="M1408.83,956h-23.17a4.23,4.23,0,0,0-4.11,5.22l5.76,23.88,5.92,23.85a4.23,4.23,0,0,0,4.1,3.21h0a4.22,4.22,0,0,0,4.09-3.24l11.51-47.7a4.23,4.23,0,0,0-4.12-5.22Zm-11.56,34.14L1391,964.45h12.43Z"/><path class="cls-3" d="M1412.77,843.61a4.2,4.2,0,0,0,2.07,3l20,11.51a4.24,4.24,0,0,0,6.17-2.47l13.87-47a4.23,4.23,0,0,0-7.12-4.12l-33.83,35.52A4.24,4.24,0,0,0,1412.77,843.61Zm29-20.54-7.4,25.09L1423.72,842Z"/><path class="cls-3" d="M1381.73,957.25a4.23,4.23,0,0,0-2.08-3.06l-20-11.5a4.22,4.22,0,0,0-6.17,2.46l-7,23.54-6.76,23.51a4.22,4.22,0,0,0,4.06,5.4,4.19,4.19,0,0,0,3.08-1.33l16.73-17.74,16.92-17.76A4.26,4.26,0,0,0,1381.73,957.25Zm-24.18,15.46-4.78,5.07,7.35-25.09,10.65,6.14Z"/><path class="cls-3" d="M1439.24,859.19a4.22,4.22,0,0,0,.27,3.68l5.77,10,5.92,10a4.22,4.22,0,0,0,3.07,2,3.64,3.64,0,0,0,.57,0,4.22,4.22,0,0,0,2.93-1.18l17.58-16.9L1493.11,850a4.22,4.22,0,0,0-4.11-7.11l-47,13.87A4.24,4.24,0,0,0,1439.24,859.19Zm35.36-3.29L1455.76,874l-6.25-10.67Z"/><path class="cls-3" d="M1355.25,941.66A4.22,4.22,0,0,0,1355,938l-11.5-20a4.23,4.23,0,0,0-6.58-.95l-35.52,33.83a4.22,4.22,0,0,0,2.91,7.29,4.52,4.52,0,0,0,1.2-.17l47-13.87A4.23,4.23,0,0,0,1355.25,941.66ZM1319.89,945l19-18.05,6.13,10.65Z"/><path class="cls-3" d="M1505.73,896.23l-47.52-11.5a4.24,4.24,0,0,0-5.23,4.11V912a4.23,4.23,0,0,0,5.23,4.11l23.7-5.75,23.85-5.92a4.23,4.23,0,0,0,0-8.22Zm-44.29,10.4V894.22L1487,900.4Z"/><path class="cls-3" d="M1336.46,916.12a4.22,4.22,0,0,0,5.22-4.11V888.84a4.21,4.21,0,0,0-1.61-3.32,4.25,4.25,0,0,0-3.61-.79l-47.69,11.5a4.23,4.23,0,0,0,0,8.22l23.88,5.92Zm-3.23-21.91v12.43l-18.6-4.48-7.08-1.76Z"/><path class="cls-3" d="M1492.8,950.61,1475.36,934l-17.59-16.92a4.23,4.23,0,0,0-6.57.89l-5.94,10-5.75,10a4.22,4.22,0,0,0,2.46,6.17L1489,958a4.44,4.44,0,0,0,1.19.17h.07a4.22,4.22,0,0,0,2.54-7.58Zm-43.29-13.06,6.25-10.67,13.76,13.23,5.08,4.84Z"/><path class="cls-3" d="M1336.91,883.78a4.2,4.2,0,0,0,2.91,1.17c.2,0,.41,0,.61,0a4.24,4.24,0,0,0,3.06-2.08l11.5-20a4.22,4.22,0,0,0-2.47-6.16l-47-13.87a4.22,4.22,0,0,0-4.11,7.11ZM1345,863.3,1338.85,874l-19-18.05Z"/><path class="cls-3" d="M1441,945.15a4.22,4.22,0,0,0-6.17-2.46l-20,11.5a4.23,4.23,0,0,0-.95,6.58l33.83,35.52a4.22,4.22,0,0,0,3.06,1.31h0a4.24,4.24,0,0,0,3.87-5.93Zm-17.25,13.68,10.65-6.14,7.4,25.09Z"/><path class="cls-3" d="M1346.59,832.19l6.94,23.51a4.22,4.22,0,0,0,2.48,2.73,4.28,4.28,0,0,0,3.69-.26l20-11.51a4.21,4.21,0,0,0,2.08-3,4.27,4.27,0,0,0-1.12-3.53l-16.91-17.74L1347,804.58a4.23,4.23,0,0,0-7.14,4.07Zm24.18,9.83-10.65,6.14-5.41-18.34-1.94-6.75Z"/><path class="cls-3" d="M1002.2,208.57a26.85,26.85,0,0,0-3.39.2v0a48.15,48.15,0,0,0-69.39-42.92A69.86,69.86,0,0,0,793,186.91c0,1.51.06,3.05.18,4.6a34.59,34.59,0,0,0-13-2.57,33.92,33.92,0,0,0,0,67.83H1002.2a24.1,24.1,0,0,0,0-48.2Zm0,39.74H780.11a25.46,25.46,0,0,1,0-50.91A26.16,26.16,0,0,1,796,202.79a4.23,4.23,0,0,0,6.72-4.22,57.4,57.4,0,0,1-1.27-11.66,61.39,61.39,0,0,1,121.21-13.78,4.23,4.23,0,0,0,6.45,2.6,39.66,39.66,0,0,1,61.28,33c0,1.79-.19,3.81-.32,5.16a4.23,4.23,0,0,0,5.87,4.31,16,16,0,0,1,6.29-1.18,15.4,15.4,0,0,1,15.56,15.56A15.66,15.66,0,0,1,1002.2,248.31Z"/><path class="cls-3" d="M983.25,276.56h-194a4.23,4.23,0,0,0,0,8.46h194a4.23,4.23,0,1,0,0-8.46Z"/><path class="cls-3" d="M983.25,311.41h-194a4.23,4.23,0,0,0,0,8.46h194a4.23,4.23,0,1,0,0-8.46Z"/><path class="cls-3" d="M983.25,346.42h-194a4.23,4.23,0,0,0,0,8.46h194a4.23,4.23,0,1,0,0-8.46Z"/><path class="cls-3" d="M132,856.8H110l15.62-15.61a4.23,4.23,0,1,0-6-6L104,850.82V828.89a4.23,4.23,0,1,0-8.46,0v21.76L80.14,835.21a4.23,4.23,0,0,0-6,6L89.77,856.8H67.67a4.23,4.23,0,0,0,0,8.46H89.6L74.16,880.71a4.23,4.23,0,0,0,6,6l15.44-15.45v21.93a4.23,4.23,0,1,0,8.46,0v-22.1l15.62,15.62a4.23,4.23,0,1,0,6-6l-15.45-15.45H132a4.23,4.23,0,1,0,0-8.46Z"/><path class="cls-3" d="M251.87,829.74a4.23,4.23,0,0,0-4.23-4.23H225.83l15.49-15.44a4.23,4.23,0,1,0-6-6l-15.62,15.56v-22a4.23,4.23,0,1,0-8.45,0v21.87l-15.46-15.39a4.22,4.22,0,1,0-6,6l15.49,15.44h-22a4.23,4.23,0,0,0,0,8.46h22l-15.5,15.44a4.22,4.22,0,1,0,6,6L211.28,840v21.88a4.23,4.23,0,0,0,8.45,0v-22l15.62,15.56a4.23,4.23,0,1,0,6-6L225.82,834h21.82A4.23,4.23,0,0,0,251.87,829.74Z"/><path class="cls-3" d="M206.37,948.65h-22L199.89,933a4.23,4.23,0,1,0-6-6l-15.44,15.5V920.74a4.23,4.23,0,1,0-8.45,0v21.82l-15.45-15.5a4.23,4.23,0,0,0-6,6l15.57,15.62h-22a4.23,4.23,0,1,0,0,8.46H164l-15.4,15.45a4.23,4.23,0,0,0,6,6L170,963v21.82a4.23,4.23,0,1,0,8.45,0V963l15.44,15.5a4.23,4.23,0,1,0,6-6L184.5,957.11h21.87a4.23,4.23,0,0,0,0-8.46Z"/><path class="cls-3" d="M316.82,907.55H295l15.4-15.46a4.23,4.23,0,0,0-6-6l-15.44,15.5V879.81a4.23,4.23,0,1,0-8.45,0v21.81L265,886.12a4.23,4.23,0,0,0-6,6l15.4,15.46H252.55a4.23,4.23,0,1,0,0,8.45h22L259,931.62a4.23,4.23,0,0,0,0,6,4.17,4.17,0,0,0,3,1.24,4.24,4.24,0,0,0,3-1.25l15.44-15.5v21.82a4.23,4.23,0,1,0,8.45,0V922.1l15.44,15.49a4.24,4.24,0,0,0,3,1.25,4.17,4.17,0,0,0,3-1.24,4.23,4.23,0,0,0,0-6L294.78,916h22a4.23,4.23,0,1,0,0-8.45Z"/></svg>