<svg id="Layer_1" data-name="Layer 1" xmlns="http://www.w3.org/2000/svg" viewBox="0 0 1920 1080"><defs><style>.cls-1{fill:#191919;}.cls-2{fill:#ffbc00;fill-rule:evenodd;}.cls-3{fill:#fff;}</style></defs><title>wall1</title><rect class="cls-1" x="1.33" width="1920" height="1080"/><path class="cls-2" d="M1602.87,131.58a55.21,55.21,0,1,1-70.17,34.24,55.21,55.21,0,0,1,70.17-34.24Z"/><path class="cls-3" d="M1546.34,281h-9.72l6.8-6.81a2.49,2.49,0,0,0-3.52-3.51l-6.8,6.8v-9.62a2.49,2.49,0,0,0-5,0v9.62l-6.8-6.8a2.49,2.49,0,0,0-3.52,3.51l6.8,6.81H1515a2.49,2.49,0,1,0,0,5h9.62l-6.8,6.8a2.49,2.49,0,0,0,0,3.52,2.49,2.49,0,0,0,3.52,0l6.8-6.8v9.62a2.49,2.49,0,0,0,5,0v-9.62l6.8,6.8a2.45,2.45,0,0,0,1.76.73,2.49,2.49,0,0,0,1.76-4.25l-6.8-6.8h9.72a2.49,2.49,0,0,0,0-5Z"/><path class="cls-3" d="M1669.77,168.91a20.32,20.32,0,0,0-7.67,1.51c.07-.92.1-1.82.1-2.71a41.13,41.13,0,0,0-75.87-22,40.72,40.72,0,0,0-15.21-3A41.15,41.15,0,0,0,1530,183.84c0,.87,0,1.77.1,2.71a20,20,0,1,0-7.66,38.4h130.69a14.2,14.2,0,0,0,14.14-14.23,14.61,14.61,0,0,0-.14-1.89h2.63a20,20,0,0,0,0-39.92ZM1653.14,220H1522.45a15,15,0,0,1,0-30,14.85,14.85,0,0,1,9.2,3.15,2.49,2.49,0,0,0,4-2.36,42.37,42.37,0,0,1-.66-7,36.12,36.12,0,0,1,69.75-13.21c.11.28.22.56.32.84s.15.43.23.65c.14.43.29.87.42,1.31,0,.15.09.29.13.44.17.62.34,1.24.48,1.87a4,4,0,0,0,.16.45.36.36,0,0,1,0,.11,3.51,3.51,0,0,0,.27.4l.06.1c.1.1.21.19.32.28a.68.68,0,0,0,.12.12,2.7,2.7,0,0,0,.44.24l.09.05h0a2.51,2.51,0,0,0,2.3-.23,23.34,23.34,0,0,1,36.06,19.42c0,1-.1,2-.19,3.06a2.49,2.49,0,0,0,1,2.24,2.53,2.53,0,0,0,1.19.46,2.41,2.41,0,0,0,1.26-.19,9.3,9.3,0,0,1,3.69-.69,9.89,9.89,0,0,1,1.23.09l.31,0a9.41,9.41,0,0,1,1.08.24l.15.05a9.4,9.4,0,0,1,1,.39l.41.2c.21.1.42.23.62.35a7.06,7.06,0,0,1,.77.54l.32.24c.2.17.4.35.58.53h0a9.12,9.12,0,0,1,2.68,6.47A9.23,9.23,0,0,1,1653.14,220Zm16.63-16.13h-4.23a14.23,14.23,0,0,0-8.11-6.6l-.18-.05a14,14,0,0,0-2.51-.52l-.31,0c-.43,0-.85-.07-1.29-.07a16.24,16.24,0,0,0-2,.12v0a28.33,28.33,0,0,0-40.84-25.26c-.18-.54-.36-1.08-.55-1.61a40.73,40.73,0,0,0-18.87-22,36.16,36.16,0,0,1,66.33,19.91,34,34,0,0,1-.74,6.86,2.49,2.49,0,0,0,4,2.49,15.4,15.4,0,0,1,9.34-3.17,15,15,0,0,1,0,30Z"/><path class="cls-3" d="M1515.63,263.54a2.44,2.44,0,0,0,1.24.34,2.49,2.49,0,0,0,2.16-1.25l15.62-27.08a2.49,2.49,0,1,0-4.31-2.48l-15.62,27.07A2.49,2.49,0,0,0,1515.63,263.54Z"/><path class="cls-3" d="M1571.77,232.15a2.49,2.49,0,0,0-3.4.92l-15.63,27.07a2.49,2.49,0,0,0,.91,3.4,2.44,2.44,0,0,0,1.24.34,2.49,2.49,0,0,0,2.16-1.25l15.63-27.08A2.49,2.49,0,0,0,1571.77,232.15Z"/><path class="cls-3" d="M1647.92,232.16a2.49,2.49,0,0,0-3.4.9l-15.73,27.08a2.49,2.49,0,0,0,.91,3.4,2.44,2.44,0,0,0,1.24.34,2.5,2.5,0,0,0,2.16-1.24l15.72-27.08A2.48,2.48,0,0,0,1647.92,232.16Z"/><path class="cls-3" d="M1577.74,267.79a2.5,2.5,0,0,0-3.4.91l-15.63,27.08a2.5,2.5,0,0,0,.91,3.4,2.57,2.57,0,0,0,1.25.33,2.49,2.49,0,0,0,2.15-1.24l15.63-27.08A2.49,2.49,0,0,0,1577.74,267.79Z"/><path class="cls-3" d="M1615.77,267.79a2.49,2.49,0,0,0-3.4.91l-15.63,27.08a2.49,2.49,0,0,0,.91,3.4,2.53,2.53,0,0,0,1.24.33,2.5,2.5,0,0,0,2.16-1.24l15.63-27.08A2.5,2.5,0,0,0,1615.77,267.79Z"/><path class="cls-3" d="M1616.71,245.36h-9.65l6.83-6.8a2.49,2.49,0,0,0-3.51-3.53l-6.81,6.78v-9.59a2.49,2.49,0,1,0-5,0v9.69l-6.9-6.88a2.49,2.49,0,1,0-3.51,3.53l6.83,6.8h-9.65a2.49,2.49,0,0,0,0,5H1595l-6.83,6.79a2.5,2.5,0,0,0,1.75,4.26,2.51,2.51,0,0,0,1.76-.73l6.9-6.87v9.69a2.49,2.49,0,0,0,5,0v-9.59l6.81,6.77a2.49,2.49,0,0,0,3.51-3.53l-6.83-6.79h9.65a2.49,2.49,0,1,0,0-5Z"/><path class="cls-2" d="M891.31,783.94a57,57,0,1,1-72.48,35.37,57,57,0,0,1,72.48-35.37Z"/><path class="cls-3" d="M935.51,821.06a15.24,15.24,0,0,0-2,.13,29.19,29.19,0,0,0-29.1-29.13,28.7,28.7,0,0,0-13,3.08,42.44,42.44,0,0,0-82.92,12.76c0,1,0,1.92.08,2.84a20.35,20.35,0,0,0-7.89-1.61,20.62,20.62,0,1,0,0,41.23h38.52l-5,21a2.57,2.57,0,0,0,3.27,3l20-6.29-13.94,50a2.57,2.57,0,0,0,4.68,2l41.68-69.79h45.76a14.65,14.65,0,1,0,0-29.3Zm-72,43.87a2.57,2.57,0,0,0-2.48-3.26,2.53,2.53,0,0,0-.77.12l-20.14,6.34,11.11-46.35h25.47l-10,23.88a2.57,2.57,0,0,0,3.14,3.45l18-5.68-34.41,57.62Zm72-19.71H892.84l2.91-4.92,0,0h0a2.37,2.37,0,0,0,.13-.34,2.05,2.05,0,0,0,.16-.38,2.16,2.16,0,0,0,0-.35,2.93,2.93,0,0,0,0-.41,1.79,1.79,0,0,0-.09-.4A2,2,0,0,0,896,838a2.58,2.58,0,0,0-.29-.51c0-.06-.06-.12-.1-.17h0a2,2,0,0,0-.24-.26l0,0-.21-.16a.39.39,0,0,0-.1-.08l-.12-.07a2.59,2.59,0,0,0-2.09-.26l-19.19,6L883,820.2a2.56,2.56,0,0,0-2.37-3.56H849.26a2.53,2.53,0,0,0-1.59.55l0,0a1.73,1.73,0,0,0-.28.26.58.58,0,0,0-.1.12l-.16.21a2,2,0,0,0-.17.32l0,.06a1.88,1.88,0,0,0-.14.42l-.06.23-6.36,26.38H800.63a15.48,15.48,0,1,1,0-31,15.31,15.31,0,0,1,9.5,3.34,2.56,2.56,0,0,0,3,.19,2.59,2.59,0,0,0,1.17-2.72,34.79,34.79,0,0,1-.67-7.18,37.3,37.3,0,0,1,73.68-8.27,2.57,2.57,0,0,0,3.94,1.56,23.39,23.39,0,0,1,13.16-4,24,24,0,0,1,24,24.06c0,1-.1,2.06-.2,3.16a2.57,2.57,0,0,0,3.71,2.53,8.27,8.27,0,0,1,3.68-.75,9.51,9.51,0,1,1,0,19Z"/><path class="cls-2" d="M927.38,135a55.22,55.22,0,1,1-70.17,34.25A55.27,55.27,0,0,1,927.38,135Z"/><path class="cls-3" d="M920.3,188.62a2.47,2.47,0,0,0,.14,2.17l3.41,6,3.48,5.87a2.54,2.54,0,0,0,1.81,1.2l.33,0a2.5,2.5,0,0,0,1.73-.7l10.34-9.94,10.45-10a2.46,2.46,0,0,0,.44-3,2.49,2.49,0,0,0-2.86-1.15l-13.82,4.08-13.83,4A2.49,2.49,0,0,0,920.3,188.62Zm16.84-.65,4-1.17L930,197.44l-1.86-3.13-1.82-3.23Z"/><path class="cls-3" d="M959.42,210.54l-28-6.77a2.48,2.48,0,0,0-3.07,2.42v13.64a2.5,2.5,0,0,0,1,2,3.14,3.14,0,0,0,.39.24,2.33,2.33,0,0,0-.59,0,2.48,2.48,0,0,0-1.81,1.21l-3.2,5.5-1.1-.65a31.27,31.27,0,0,0-27.39-46.5,31.5,31.5,0,0,0-28.54,18.26l-1.38-.31,5-8.76a2.49,2.49,0,0,0-1.48-3.62l-13.81-4-13.74-4.08a2.49,2.49,0,0,0-2.43,4.18l10.36,10,5.79,5.51a41.13,41.13,0,0,0-39,41.06c0,.95,0,1.87.08,2.75a19.79,19.79,0,0,0-7.64-1.55,20,20,0,1,0,0,39.92h130.6a14.19,14.19,0,1,0,0-28.37,16.12,16.12,0,0,0-2,.12v0a28,28,0,0,0-1.8-9.89l.11,0,13.84,4a2.35,2.35,0,0,0,.69.1h0a2.48,2.48,0,0,0,1.49-4.46l-10.26-9.78-10.35-9.95a2.51,2.51,0,0,0-.62-.42l.29,0a2.46,2.46,0,0,0,.6-.07l13.91-3.48,14-3.38a2.49,2.49,0,0,0,0-4.84Zm-87.52-9.23A26.42,26.42,0,0,1,922,213a26.23,26.23,0,0,1-3.53,13.09l-.41-.13a28.19,28.19,0,0,0-8.1-1.4h-.08l-.62,0-.41,0-1,0-.42,0a28.51,28.51,0,0,0-4.73.67l-.1,0c-.46.1-.91.22-1.35.35l-.33.1-1.1.35-.41.15-1,.4-.39.16c-.46.2-.91.4-1.35.62-.11-.36-.25-.71-.37-1.07-.07-.21-.14-.42-.22-.62-.14-.4-.29-.78-.45-1.17s-.19-.47-.29-.71-.32-.76-.5-1.13c-.23-.52-.47-1-.73-1.52-.12-.24-.24-.47-.37-.7-.23-.43-.46-.86-.71-1.28l-.26-.46a41,41,0,0,0-16.55-15.5l-.09,0c-.56-.28-1.12-.55-1.69-.81l-.71-.31-1.07-.44ZM850.08,186.8l14.75,4.28-3.62,6.35-8.15-7.77Zm89.35,70.75a9.21,9.21,0,1,1,0,18.42H808.83a15,15,0,1,1,0-30,14.83,14.83,0,0,1,9.2,3.23,2.48,2.48,0,0,0,4-2.43,34.93,34.93,0,0,1-.65-7,36.12,36.12,0,0,1,49.38-33.61l.92.38c.39.16.78.34,1.16.51l1.37.68.51.27c.62.33,1.22.68,1.82,1.05l.13.09a35.77,35.77,0,0,1,7.2,5.93h0a36.82,36.82,0,0,1,2.87,3.48l.19.27c.39.55.77,1.11,1.13,1.68.11.18.22.36.32.54.24.39.48.8.7,1.2.13.24.27.47.39.71.26.49.5,1,.74,1.5.16.33.3.67.45,1s.22.53.32.79c.23.55.43,1.1.63,1.67.11.31.22.62.32.94s.19.63.28,1c.17.59.34,1.19.47,1.79l0,.09h0l.8,3.53,3-2c.43-.29.86-.56,1.31-.81l.35-.2c.35-.18.7-.37,1.06-.54l.34-.16c.4-.18.81-.36,1.23-.52L901,231a23.26,23.26,0,0,1,6.44-1.4h.25c.38,0,.76,0,1.15,0a24.74,24.74,0,0,1,8,1.25,23.55,23.55,0,0,1,6.24,3.28,2.2,2.2,0,0,0,.35.33,22.65,22.65,0,0,1,9.06,18.32,28.46,28.46,0,0,1-.19,3,2.49,2.49,0,0,0,3.46,2.54A9.35,9.35,0,0,1,939.43,257.55Zm-1.32-21.29,3.1,3-4.05-1.16-4.72-1.43a26.44,26.44,0,0,0-3.37-4c-.31-.31-.63-.6-1-.9l1.91-3.27Zm-4.76-19.62v-7.29L948.22,213Z"/><path class="cls-3" d="M865.77,172.85l4.08,13.83a2.49,2.49,0,0,0,1.48,1.62,2.58,2.58,0,0,0,.91.17,2.51,2.51,0,0,0,1.27-.35l5.83-3.46,6-3.38a2.49,2.49,0,0,0,1.23-1.81,2.22,2.22,0,0,0,0-.63,2.42,2.42,0,0,0,2.21,1.37h13.66a2.48,2.48,0,0,0,2.37-1.78,2.55,2.55,0,0,0-.08,1,2.5,2.5,0,0,0,1.22,1.81l11.84,6.86a2.42,2.42,0,0,0,1.25.34,2.48,2.48,0,0,0,2.39-1.8l4-13.82L929.47,159a2.49,2.49,0,0,0-4.19-2.42L915.34,167l-10,10.36a2.34,2.34,0,0,0-.54.89,2.6,2.6,0,0,0,.07-.56,2.35,2.35,0,0,0-.17-.89l-6.69-27.67a2.49,2.49,0,0,0-4.84,0l-3.38,14-3.48,13.94a2.33,2.33,0,0,0,0,.91,2.76,2.76,0,0,0-.43-.64l-10-10.35L866,156.59a2.49,2.49,0,0,0-4.2,2.41Zm53.16-2.37,2.85-3-4.27,14.74-6.34-3.68Zm-24.27-6.11,1-4,3.6,14.87H892Zm-14.59,14.16-3.23,1.83-3.12,1.85-3.17-10.75-1.18-4.09Z"/><path class="cls-2" d="M1399.11,120.26a55.21,55.21,0,1,1-70.17,34.24,55.2,55.2,0,0,1,70.17-34.24Z"/><path class="cls-3" d="M1423.6,180.38a19.88,19.88,0,0,0-7.64,1.52c0-.9.08-1.84.08-2.81a41.12,41.12,0,0,0-75.78-22,40.48,40.48,0,0,0-15.2-3A41.15,41.15,0,0,0,1284,195.21c0,.95,0,1.86.07,2.74a19.38,19.38,0,0,0-7.64-1.54,20,20,0,1,0,0,39.91H1407a14.19,14.19,0,0,0,14.23-14.13,14.45,14.45,0,0,0-.15-2h2.54a19.91,19.91,0,1,0,0-39.82Zm-16.62,51h-130.6a15,15,0,1,1,0-30,14.58,14.58,0,0,1,9.2,3.24,2.49,2.49,0,0,0,4-2.45,33.49,33.49,0,0,1-.65-7,36.06,36.06,0,0,1,60.84-26.27l.09.09c.29.27.57.55.85.83l.77.81.34.36a36.48,36.48,0,0,1,7.92,14.15v0c.19.66.36,1.33.52,2a2.34,2.34,0,0,0,.09.24,1.73,1.73,0,0,0,.11.32c0,.09.11.17.17.26l.16.24a2.21,2.21,0,0,0,.32.29.63.63,0,0,0,.12.11,2.38,2.38,0,0,0,.44.25l.08,0h0a2.46,2.46,0,0,0,2.29-.23,22.86,22.86,0,0,1,12.77-3.87A23.27,23.27,0,0,1,1400,208.15a16.1,16.1,0,0,1-.16,2.84,2.5,2.5,0,0,0,.42,1.89,2.65,2.65,0,0,0,.46.49,2.49,2.49,0,0,0,2.49.38,10.32,10.32,0,0,1,3.76-.82,9.71,9.71,0,0,1,1.21.09l.42.06.71.16a9,9,0,0,1,1.24.41h0a9.36,9.36,0,0,1,4.47,4c.16.32.33.63.46,1l0,.06a9.12,9.12,0,0,1,.7,3.51A9.23,9.23,0,0,1,1407,231.35Zm16.62-16.13h-4.19a14,14,0,0,0-10.87-7.17l-.23,0c-.44,0-.88-.07-1.33-.07a13.56,13.56,0,0,0-2,.16,28.25,28.25,0,0,0-28.17-28.23c-.56,0-1.11,0-1.66.05l-.44,0-1.19.1-.21,0a27.55,27.55,0,0,0-9.08,2.77,40.65,40.65,0,0,0-7.37-13.57l-.17-.21c-.27-.33-.56-.66-.84-1s-.33-.38-.51-.57l-.08-.09a41.44,41.44,0,0,0-10.46-8.27,36.15,36.15,0,0,1,66.25,19.91,34.29,34.29,0,0,1-.64,7,2.47,2.47,0,0,0,1.11,2.61,2.5,2.5,0,0,0,2.84-.13,15,15,0,1,1,9.23,26.69Z"/><path class="cls-3" d="M1287.68,243.53a2.49,2.49,0,0,0-3.4.9l-15.73,27.18a2.49,2.49,0,0,0,.91,3.4,2.44,2.44,0,0,0,1.24.34,2.49,2.49,0,0,0,2.16-1.25l15.73-27.17A2.49,2.49,0,0,0,1287.68,243.53Z"/><path class="cls-3" d="M1325.7,243.52a2.5,2.5,0,0,0-3.4.92l-15.63,27.18a2.49,2.49,0,0,0,.92,3.39,2.44,2.44,0,0,0,1.24.34,2.49,2.49,0,0,0,2.16-1.25l15.63-27.18A2.5,2.5,0,0,0,1325.7,243.52Z"/><path class="cls-3" d="M1363.72,243.52a2.49,2.49,0,0,0-3.39.92l-15.63,27.18a2.49,2.49,0,1,0,4.31,2.48l15.63-27.18A2.48,2.48,0,0,0,1363.72,243.52Z"/><path class="cls-3" d="M1401.75,243.52a2.5,2.5,0,0,0-3.4.92l-15.63,27.18a2.49,2.49,0,0,0,.92,3.39,2.44,2.44,0,0,0,1.24.34,2.49,2.49,0,0,0,2.16-1.25l15.63-27.18A2.5,2.5,0,0,0,1401.75,243.52Z"/><path class="cls-3" d="M1293.65,279.16a2.5,2.5,0,0,0-3.4.91l-15.72,27.18a2.48,2.48,0,0,0,.9,3.4,2.57,2.57,0,0,0,1.25.33,2.47,2.47,0,0,0,2.15-1.24l15.73-27.18A2.49,2.49,0,0,0,1293.65,279.16Z"/><path class="cls-3" d="M1331.68,279.16a2.5,2.5,0,0,0-3.4.91l-15.73,27.18a2.49,2.49,0,0,0,.91,3.4,2.53,2.53,0,0,0,1.24.33,2.48,2.48,0,0,0,2.16-1.24l15.73-27.18A2.5,2.5,0,0,0,1331.68,279.16Z"/><path class="cls-3" d="M1369.7,279.16a2.49,2.49,0,0,0-3.4.92l-15.63,27.17a2.5,2.5,0,0,0,.92,3.4,2.43,2.43,0,0,0,1.24.33,2.49,2.49,0,0,0,2.16-1.25l15.62-27.17A2.49,2.49,0,0,0,1369.7,279.16Z"/><path class="cls-2" d="M622.67,785.69a57,57,0,1,1-72.49,35.37,57,57,0,0,1,72.49-35.37Z"/><path class="cls-3" d="M670.06,859.71l-84.1-.1c-11.59,0-21.38,10.22-21.38,22.31a22.33,22.33,0,0,0,43.68,6.52,2.57,2.57,0,1,0-4.91-1.52,17.37,17.37,0,0,1-16.46,12.17,17.19,17.19,0,0,1-17.17-17.17c0-9.31,7.44-17.17,16.24-17.17l84.1.1h0a2.57,2.57,0,1,0,0-5.14Z"/><path class="cls-3" d="M665.64,852.93a2.57,2.57,0,0,0,0-5.14h-101c-12.65,0-23.34-11.25-23.34-24.57a24.56,24.56,0,0,1,48-7.17,2.57,2.57,0,1,0,4.91-1.5,29.7,29.7,0,0,0-58.08,8.67c0,16.1,13,29.71,28.48,29.71Z"/><path class="cls-3" d="M683,836.38H615c-5.69,0-10.69-5.34-10.69-11.42a11.35,11.35,0,0,1,22.21-3.27,2.57,2.57,0,1,0,4.93-1.47A16.49,16.49,0,0,0,599.12,825c0,9,7.25,16.56,15.83,16.56H683a2.57,2.57,0,1,0,0-5.14Z"/><path class="cls-2" d="M1130.66,774.75a57,57,0,1,1-72.48,35.36,57,57,0,0,1,72.48-35.36Z"/><path class="cls-3" d="M1100.74,814.84a32.39,32.39,0,1,0,32.39,32.39A32.42,32.42,0,0,0,1100.74,814.84Zm0,59.63A27.25,27.25,0,1,1,1128,847.23,27.27,27.27,0,0,1,1100.74,874.47Z"/><path class="cls-3" d="M1093.65,813.4h14.1a2.57,2.57,0,0,0,2.4-3.49l-6.91-28.57a2.59,2.59,0,0,0-2.49-2h0a2.57,2.57,0,0,0-2.49,2l-3.61,14.51-3.49,14.4a2.57,2.57,0,0,0,2.5,3.17Zm6-16.34,1.06-4.3,3.76,15.5h-7.54Z"/><path class="cls-3" d="M1107.73,881.05h-14.08a2.57,2.57,0,0,0-2.5,3.18l3.5,14.51,3.6,14.5a2.57,2.57,0,0,0,2.49,2h0a2.59,2.59,0,0,0,2.49-2l7-29a2.57,2.57,0,0,0-2.5-3.18Zm-7,20.75-3.79-15.61h7.56Z"/><path class="cls-3" d="M1110.12,812.74a2.57,2.57,0,0,0,1.26,1.86l12.13,7a2.58,2.58,0,0,0,1.29.35,2.41,2.41,0,0,0,1-.19,2.55,2.55,0,0,0,1.51-1.66l8.43-28.58a2.57,2.57,0,0,0-4.32-2.5L1110.8,810.6A2.59,2.59,0,0,0,1110.12,812.74Zm17.63-12.48-4.49,15.25-6.48-3.73Z"/><path class="cls-3" d="M1091.26,881.82A2.59,2.59,0,0,0,1090,880l-12.14-7a2.56,2.56,0,0,0-3.74,1.5l-4.23,14.3-4.11,14.29a2.58,2.58,0,0,0,1.2,3,2.64,2.64,0,0,0,1.27.33,2.56,2.56,0,0,0,1.87-.8l10.17-10.79L1090.57,884A2.56,2.56,0,0,0,1091.26,881.82Zm-14.7,9.4-2.91,3.08,4.47-15.25,6.48,3.73Z"/><path class="cls-3" d="M1126.21,822.22a2.57,2.57,0,0,0,.16,2.23l3.52,6.1,3.59,6.06a2.6,2.6,0,0,0,1.87,1.24l.35,0a2.54,2.54,0,0,0,1.78-.72l10.68-10.27L1159,816.6a2.57,2.57,0,0,0-2.5-4.33l-28.59,8.44A2.57,2.57,0,0,0,1126.21,822.22Zm21.5-2-11.46,11-3.79-6.49Z"/><path class="cls-3" d="M1075.16,872.34a2.51,2.51,0,0,0-.16-2.23L1068,858a2.59,2.59,0,0,0-1.86-1.26,2.56,2.56,0,0,0-2.14.69L1042.42,878a2.57,2.57,0,0,0,1.78,4.43,2.25,2.25,0,0,0,.72-.11l28.58-8.43A2.55,2.55,0,0,0,1075.16,872.34Zm-21.49,2,11.52-11,3.73,6.48Z"/><path class="cls-3" d="M1166.63,844.73l-28.89-7a2.57,2.57,0,0,0-3.17,2.5v14.08a2.57,2.57,0,0,0,2.57,2.57,2.46,2.46,0,0,0,.6-.07l14.41-3.5,14.49-3.6a2.57,2.57,0,0,0,0-5Zm-26.92,6.32v-7.54l15.5,3.75Z"/><path class="cls-3" d="M1063.74,856.82a2.48,2.48,0,0,0,.61.07,2.57,2.57,0,0,0,2.57-2.57V840.24a2.57,2.57,0,0,0-3.18-2.5l-29,7a2.57,2.57,0,0,0,0,5l14.52,3.61Zm-2-13.32v7.56l-11.31-2.73-4.3-1.07Z"/><path class="cls-3" d="M1158.77,877.78l-10.6-10.09-10.69-10.29a2.58,2.58,0,0,0-4,.55l-3.61,6.09-3.5,6.07a2.56,2.56,0,0,0,1.5,3.74l28.59,8.43a2.25,2.25,0,0,0,.72.11h0a2.57,2.57,0,0,0,1.55-4.61Zm-26.31-7.93,3.79-6.49,8.36,8,3.1,2.94Z"/><path class="cls-3" d="M1064,837.16a2.57,2.57,0,0,0,1.78.71l.36,0a2.59,2.59,0,0,0,1.86-1.26l7-12.14a2.56,2.56,0,0,0-1.5-3.74l-28.58-8.44a2.57,2.57,0,0,0-2.5,4.33Zm4.91-12.45-3.73,6.48-11.52-11Z"/><path class="cls-3" d="M1127.26,874.47a2.57,2.57,0,0,0-3.75-1.5l-12.13,7a2.57,2.57,0,0,0-.58,4l20.57,21.59a2.57,2.57,0,0,0,1.86.79h0a2.56,2.56,0,0,0,2.35-3.6Zm-10.48,8.31,6.48-3.73,4.49,15.25Z"/><path class="cls-3" d="M1069.9,805.8l4.22,14.29a2.53,2.53,0,0,0,1.51,1.66,2.41,2.41,0,0,0,.95.19,2.51,2.51,0,0,0,1.28-.35l12.14-7a2.59,2.59,0,0,0,1.26-1.86,2.56,2.56,0,0,0-.69-2.14l-10.27-10.78L1070.12,789a2.57,2.57,0,0,0-4.34,2.47Zm14.7,6-6.48,3.73-3.28-11.15-1.19-4.1Z"/><path class="cls-2" d="M1137.82,132.2a55.21,55.21,0,1,1-70.18,34.25,55.2,55.2,0,0,1,70.18-34.25Z"/><path class="cls-3" d="M1183.31,212.93a16.24,16.24,0,0,0-2,.12v0a28.33,28.33,0,0,0-40.84-25.26,41.11,41.11,0,0,0-80.3,12.42c0,.89,0,1.79.1,2.71a20.32,20.32,0,0,0-7.67-1.51,20,20,0,0,0,0,39.91h130.7a14.19,14.19,0,0,0,0-28.37Zm0,23.39h-130.7a15,15,0,0,1,0-30,15.46,15.46,0,0,1,9.34,3.17,2.49,2.49,0,0,0,4-2.48,34.06,34.06,0,0,1-.74-6.86,36.13,36.13,0,0,1,71.33-8.11,2.49,2.49,0,0,0,3.79,1.53A23.34,23.34,0,0,1,1176.34,213c0,1.06-.1,2.24-.18,3a2.48,2.48,0,0,0,3.45,2.53,9.39,9.39,0,0,1,3.7-.69,9.06,9.06,0,0,1,9.16,9.16A9.22,9.22,0,0,1,1183.31,236.32Z"/><path class="cls-3" d="M1172.16,253H1058a2.49,2.49,0,1,0,0,5h114.17a2.49,2.49,0,1,0,0-5Z"/><path class="cls-3" d="M1172.16,273.46H1058a2.49,2.49,0,1,0,0,5h114.17a2.49,2.49,0,1,0,0-5Z"/><path class="cls-3" d="M1172.16,294.06H1058a2.49,2.49,0,1,0,0,5h114.17a2.49,2.49,0,1,0,0-5Z"/><path class="cls-2" d="M378.93,783.74a57,57,0,1,1-72.58,35.37,57,57,0,0,1,72.58-35.37Z"/><path class="cls-3" d="M331.61,832.7H318.28l9.49-9.49a2.57,2.57,0,0,0-3.63-3.64l-9.49,9.5V815.74a2.57,2.57,0,1,0-5.14,0V829l-9.39-9.39a2.57,2.57,0,0,0-3.64,3.64l9.5,9.49H292.54a2.57,2.57,0,0,0,0,5.14h13.33l-9.39,9.39a2.58,2.58,0,0,0,1.82,4.39,2.54,2.54,0,0,0,1.82-.76l9.39-9.38V854.8a2.57,2.57,0,0,0,5.14,0V841.37l9.49,9.49a2.57,2.57,0,1,0,3.63-3.63l-9.38-9.39h13.22a2.57,2.57,0,0,0,0-5.14Z"/><path class="cls-3" d="M404.5,816.25a2.57,2.57,0,0,0-2.57-2.57H388.67l9.42-9.39a2.57,2.57,0,1,0-3.63-3.64L385,810.11V796.72a2.57,2.57,0,0,0-5.14,0V810l-9.39-9.36a2.57,2.57,0,1,0-3.63,3.64l9.42,9.39H362.87a2.57,2.57,0,1,0,0,5.14h13.36l-9.42,9.39a2.57,2.57,0,0,0,3.63,3.64l9.39-9.36v13.29a2.57,2.57,0,0,0,5.14,0V822.39l9.49,9.46a2.57,2.57,0,1,0,3.63-3.64l-9.42-9.39h13.26A2.57,2.57,0,0,0,404.5,816.25Z"/><path class="cls-3" d="M376.85,888.53h-13.4l9.46-9.5a2.57,2.57,0,0,0-3.64-3.63l-9.39,9.42V871.56a2.57,2.57,0,0,0-5.14,0v13.26l-9.38-9.42a2.57,2.57,0,1,0-3.64,3.63l9.46,9.5h-13.4a2.57,2.57,0,0,0,0,5.14h13.29l-9.35,9.39a2.57,2.57,0,0,0,3.64,3.63l9.38-9.42v13.26a2.57,2.57,0,1,0,5.14,0V897.27l9.39,9.42a2.57,2.57,0,0,0,3.64-3.63l-9.36-9.39h13.3a2.57,2.57,0,0,0,0-5.14Z"/><path class="cls-3" d="M444,863.54H430.69l9.36-9.39a2.57,2.57,0,0,0-3.65-3.63L427,859.94V846.68a2.57,2.57,0,0,0-5.14,0v13.26l-9.39-9.42a2.57,2.57,0,0,0-3.64,3.63l9.36,9.39h-13.3a2.57,2.57,0,0,0,0,5.14h13.4l-9.46,9.5a2.57,2.57,0,0,0,3.64,3.63l9.39-9.42v13.26a2.57,2.57,0,0,0,5.14,0V872.39l9.38,9.42a2.6,2.6,0,0,0,1.82.75,2.57,2.57,0,0,0,1.83-4.38l-9.46-9.5H444a2.57,2.57,0,0,0,0-5.14Z"/></svg>